<svg width="23" height="36" viewBox="0 0 23 36" fill="none" xmlns="http://www.w3.org/2000/svg">
<path d="M4.0262 35.0544H0.78418V1.62101H3.93615L4.11626 18.3264L4.0262 35.0544ZM13.8874 15.8724C12.8067 15.8724 11.771 15.6698 10.8029 15.242C9.83483 14.8143 8.9793 14.2514 8.28136 13.5309C7.56091 12.8105 6.99806 11.955 6.59281 11.0094C6.16504 10.0638 5.96241 9.02814 5.96241 7.90243C5.96241 6.82176 6.16504 5.80863 6.59281 4.84052C7.02057 3.89493 7.58343 3.0394 8.28136 2.31895C9.00181 1.5985 9.83483 1.01313 10.8029 0.60788C11.771 0.202627 12.8067 0 13.8874 0C14.9906 0 16.0262 0.202627 16.9943 0.630394C17.9399 1.05816 18.7954 1.62101 19.5159 2.34146C20.2363 3.06191 20.8217 3.91745 21.2269 4.86304C21.6547 5.83114 21.8573 6.84427 21.8573 7.92495C21.8573 9.02814 21.6547 10.0638 21.2269 11.0319C20.7992 12 20.2363 12.833 19.5159 13.5535C18.7954 14.2739 17.9399 14.8593 16.9943 15.2645C16.0262 15.6698 14.9906 15.8724 13.8874 15.8724ZM19.9436 35.7974L22.6228 33.8161L12.9868 20.848L10.893 18.349L8.30388 20.2401L19.9436 35.7974ZM13.8874 3.33208C13.2345 3.33208 12.6266 3.44465 12.0862 3.69231C11.5234 3.93996 11.0506 4.27767 10.6228 4.68292C10.1951 5.11069 9.87986 5.58349 9.65472 6.14634C9.42958 6.70919 9.31701 7.29456 9.31701 7.90243C9.31701 8.55534 9.42958 9.16322 9.65472 9.72607C9.87986 10.2889 10.2176 10.7842 10.6228 11.212C11.0506 11.6398 11.5234 11.955 12.0862 12.1801C12.6491 12.4052 13.2345 12.5178 13.8874 12.5178C14.5403 12.5178 15.1481 12.4052 15.6885 12.1801C16.2513 11.955 16.7241 11.6173 17.1519 11.212C17.5797 10.7842 17.8949 10.3114 18.1425 9.72607C18.3902 9.16322 18.5027 8.55534 18.5027 7.90243C18.5027 7.29456 18.3902 6.70919 18.1425 6.14634C17.8949 5.58349 17.5572 5.11069 17.1519 4.68292C16.7241 4.25516 16.2513 3.93996 15.6885 3.69231C15.1256 3.46717 14.5403 3.33208 13.8874 3.33208Z" fill="white"/>
</svg>
